<svg xmlns="http://www.w3.org/2000/svg" width="275" height="275" viewBox="0 0 275 275">
  <g id="placeholder_skripte" transform="translate(-510 -166)">
    <circle id="Ellipse_15" data-name="Ellipse 15" cx="137.5" cy="137.5" r="137.5" transform="translate(510 166)" fill="#fafafa"/>
    <text id="Bisher_wurden_noch_nichts_zu_Skripte_in_HCI_hochgeladen." data-name="Bisher wurden noch nichts zu Skripte in HCI hochgeladen." transform="translate(518 329)" fill="#7e7e7e" font-size="16" font-family="Rubik-Regular, Rubik"><tspan x="19.524" y="15">Bisher wurden noch nichts zu </tspan><tspan x="27.084" y="34">Skripte in HCI hochgeladen.</tspan></text>
    <g id="placeholder_skripte-2" data-name="placeholder_skripte" transform="translate(614 231)" opacity="0.8">
      <g id="Gruppe_1" data-name="Gruppe 1">
        <path id="Pfad_1" data-name="Pfad 1" d="M46.875,60.438H9.188A4.2,4.2,0,0,1,5,56.25V10.188A4.2,4.2,0,0,1,9.188,6H46.875a4.2,4.2,0,0,1,4.188,4.188V56.25A4.2,4.2,0,0,1,46.875,60.438ZM9.188,10.188V56.25H46.875V10.188Z" transform="translate(5.469 6.563)" fill="#7e7e7e"/>
        <path id="Pfad_2" data-name="Pfad 2" d="M19.375,16.188H13.094a2.094,2.094,0,1,1,0-4.187h6.281a2.094,2.094,0,0,1,0,4.188Z" transform="translate(12.031 13.125)" fill="#7e7e7e"/>
        <path id="Pfad_3" data-name="Pfad 3" d="M29.844,19.187H13.094a2.094,2.094,0,1,1,0-4.187h16.75a2.094,2.094,0,1,1,0,4.187Z" transform="translate(12.031 16.406)" fill="#7e7e7e"/>
        <path id="Pfad_4" data-name="Pfad 4" d="M29.844,23.188H13.094a2.094,2.094,0,1,1,0-4.187h16.75a2.094,2.094,0,1,1,0,4.187Z" transform="translate(12.031 20.781)" fill="#7e7e7e"/>
        <path id="Pfad_5" data-name="Pfad 5" d="M29.844,27.187H13.094a2.094,2.094,0,1,1,0-4.187h16.75a2.094,2.094,0,1,1,0,4.187Z" transform="translate(12.031 25.156)" fill="#7e7e7e"/>
        <path id="Pfad_6" data-name="Pfad 6" d="M6.281,54.438H4.188A4.1,4.1,0,0,1,0,50.25V4.188A4.2,4.2,0,0,1,4.188,0H41.875a4.2,4.2,0,0,1,4.188,4.188V14.656a2.094,2.094,0,1,1-4.187,0V4.188H4.188V50.25H6.281a2.094,2.094,0,1,1,0,4.188Z" fill="#7e7e7e"/>
        <path id="Pfad_7" data-name="Pfad 7" d="M37.656,56.437H29.281a2.094,2.094,0,0,1,0-4.187h8.375V6.188H25.094a2.094,2.094,0,0,1,0-4.187H37.656a4.2,4.2,0,0,1,4.188,4.188V52.25A4.2,4.2,0,0,1,37.656,56.437Z" transform="translate(25.156 2.188)" fill="#7e7e7e"/>
      </g>
    </g>
  </g>
</svg>
